# xmcd
#
# Track frame offsets:
#	150
#	14812
#	35110
#	50930
#	66007
#	90777
#	107315
#	122815
#	142187
#	163170
#	168455
#
# Disc length: 2548 seconds
#
# Revision: 1
# Processed by: cddbd v1.5.1PL0 Copyright (c) Steve Scherf et al.
# Submitted via: EasyCDDAExtractor 5.0.7
#
DISCID=9c09f20b
DTITLE=J.J. Jackson - And Very Special Friens
DYEAR=1900
DGENRE=Blues
TTITLE0=Blues Ain't Nothing
TTITLE1=Little Wing
TTITLE2=Bridge Over Troubled Water
TTITLE3=Kansan City
TTITLE4=Misty
TTITLE5=Your Lovin' Blues
TTITLE6=You Are So Beautiful
TTITLE7=Sympathy For The Devil
TTITLE8=Honest I Do
TTITLE9=Take Me Home
TTITLE10=Hey Blues
EXTD=
EXTT0=
EXTT1=
EXTT2=
EXTT3=
EXTT4=
EXTT5=
EXTT6=
EXTT7=
EXTT8=
EXTT9=
EXTT10=
PLAYORDER=
